@startuml Bomberman

class Juego
class Jugador

class Habilidad
class PotenciaFuego
class Velocidad
class NumeroBomba
class Bomberman
class Enemigo 

class Sala
class Laberinto
class Puerta
class Roca
class Pared

class Bomba
class PowerUp
class Patines
class FireUp
class BombUp
class Item
class Destruible
class Indestruible

Laberinto "1" *-- "*" Sala
Sala "1" *-- "1" Puerta
Sala "1" *-- "*" Roca
Sala "1" *-- "*" Enemigo
Roca "0,1" *-- "1" Item
Puerta --|> Item
PowerUp --|> Item
Roca --|> ObjetoDestruible

Juego "1" *-- "1" Jugador
Jugador "1" o-- "1" Bomberman
Bomberman "1" *-- "*" Habilidad
Enemigo --|> ObjetoDestruible


BombUp --|> PowerUp
FireUp --|> PowerUp
Patines --|> PowerUp

PotenciaFuego --|> Habilidad
Velocidad --|> Habilidad
NumeroBomba --|> Habilidad

PowerUp --o Habilidad  

NumeroBomba *-- Bomba
Bomba o-- ObjetoDestruible



@enduml